<?xml version="1.0" encoding="utf-8"?>
<!-- Generator: Adobe Illustrator 24.3.0, SVG Export Plug-In . SVG Version: 6.00 Build 0)  -->
<svg version="1.1" id="Layer_1" xmlns="http://www.w3.org/2000/svg" xmlns:xlink="http://www.w3.org/1999/xlink" x="0px" y="0px"
	 viewBox="0 0 33 34" style="enable-background:new 0 0 33 34;" xml:space="preserve">
<style type="text/css">
	.st0{fill:#6772F0;}
	.st1{fill:#FFFFFF;}
	.st2{fill:url(#SVGID_1_);}
	.st3{fill:none;stroke:#FFFFFF;stroke-width:0.0304;stroke-miterlimit:10;}
</style>
<g>
	<circle class="st0" cx="16.5" cy="17" r="16.39"/>
	<g>
		<line class="st1" x1="16.86" y1="16" x2="16.86" y2="15.99"/>
	</g>
	<linearGradient id="SVGID_1_" gradientUnits="userSpaceOnUse" x1="29.7505" y1="17" x2="4.1255" y2="17">
		<stop  offset="0.0435" style="stop-color:#FFFFFF"/>
		<stop  offset="0.2029" style="stop-color:#FBFBFF"/>
		<stop  offset="0.3581" style="stop-color:#EFF1FD"/>
		<stop  offset="0.5116" style="stop-color:#DCDEFC"/>
		<stop  offset="0.664" style="stop-color:#C0C5F9"/>
		<stop  offset="0.8158" style="stop-color:#9DA4F5"/>
		<stop  offset="0.9651" style="stop-color:#727CF1"/>
		<stop  offset="1" style="stop-color:#6772F0"/>
	</linearGradient>
	<path class="st2" d="M18,15.75c-0.44-0.22-0.93-0.35-1.46-0.35c-0.54,0-1.04,0.13-1.48,0.36l0.06-0.83l0.51-0.66h1.81l0.51,0.66
		L18,15.75z M18.54,16.83c-0.63-0.19-1.3-0.29-1.99-0.29h-0.03c-0.69,0-1.36,0.1-1.99,0.29c-0.37,0.43-0.59,0.99-0.59,1.61
		c0,0.14,0.01,0.28,0.04,0.42c0.79-0.31,1.66-0.49,2.56-0.49c0.9,0,1.77,0.17,2.56,0.49c0.02-0.14,0.04-0.27,0.04-0.42
		C19.13,17.82,18.91,17.26,18.54,16.83z M19.19,20.29c-0.77-0.53-1.68-0.84-2.66-0.84h-0.01c-0.98,0-1.89,0.31-2.66,0.84
		c-0.24,0.51-0.38,1.1-0.38,1.71c0,0.29,0.03,0.57,0.09,0.83c0.87-0.53,1.88-0.83,2.95-0.83h0.01c1.07,0,2.08,0.3,2.95,0.83
		c0.06-0.27,0.09-0.55,0.09-0.83C19.58,21.38,19.44,20.8,19.19,20.29z M16.54,23.32L16.54,23.32c-0.91,0-1.76,0.21-2.53,0.57
		c0.54,0.87,1.46,1.47,2.52,1.6c0,0,0,0,0,0c1.06-0.13,1.98-0.74,2.52-1.6C18.29,23.53,17.44,23.32,16.54,23.32z M24.14,15.02h-2.93
		l-0.67,0.77l-0.83,0.95c0.33,0.51,0.51,1.12,0.51,1.77c0,0.11-0.01,0.23-0.02,0.34v0l1.05,1.88l5.27-2.74L24.14,15.02z
		 M28.09,15.02h-2.93l2.08,2.59l2.07-1.08L28.09,15.02z M6.48,17.99l5.27,2.74l1.05-1.88v0c-0.01-0.11-0.02-0.22-0.02-0.34
		c0-0.65,0.19-1.26,0.51-1.77l-1.5-1.72H8.86L6.48,17.99z M3.69,16.54l2.07,1.08l2.08-2.59H4.91L3.69,16.54z M18.16,13.34l0.43,0.57
		l3.94-5.4h-1.3L18.16,13.34z M11.85,8.5h-1.3l3.94,5.4l0.43-0.57L11.85,8.5z"/>
	<path class="st3" d="M16.86,15.99"/>
	<path class="st3" d="M16.86,15.99"/>
</g>
</svg>