<svg id="Layer_1" data-name="Layer 1" xmlns="http://www.w3.org/2000/svg" xmlns:xlink="http://www.w3.org/1999/xlink" viewBox="0 0 9.71429 9.71429">
  <defs>
    <style>
      .cls-1 {
        fill: #6772f0;
      }

      .cls-2 {
        fill: #fff;
      }

      .cls-3 {
        fill: url(#Gradiente_sem_nome_50);
      }

      .cls-4 {
        fill: none;
        stroke: #fff;
        stroke-miterlimit: 10;
        stroke-width: 0.00901px;
      }
    </style>
    <linearGradient id="Gradiente_sem_nome_50" data-name="Gradiente sem nome 50" x1="8.78372" y1="4.85715" x2="1.19016" y2="4.85715" gradientUnits="userSpaceOnUse">
      <stop offset="0.04355" stop-color="#fff"/>
      <stop offset="0.20294" stop-color="#fbfbff"/>
      <stop offset="0.35812" stop-color="#eff1fd"/>
      <stop offset="0.51161" stop-color="#dcdefc"/>
      <stop offset="0.66405" stop-color="#c0c5f9"/>
      <stop offset="0.81581" stop-color="#9da4f5"/>
      <stop offset="0.96512" stop-color="#727cf1"/>
      <stop offset="1" stop-color="#6772f0"/>
    </linearGradient>
  </defs>
  <circle class="cls-1" cx="4.85715" cy="4.85715" r="4.85715"/>
  <line class="cls-2" x1="4.96493" y1="4.56092" x2="4.96466" y2="4.55758"/>
  <path class="cls-3" d="M5.30037,4.48732a.95583.95583,0,0,0-.87206.004l.0173-.24619L4.596,4.04934h.5369l.1505.19579Zm.16142.31851A2.05353,2.05353,0,0,0,4.87213,4.72H4.86434a2.0536,2.0536,0,0,0-.58967.08585.73468.73468,0,0,0-.16487.59929,2.06331,2.06331,0,0,1,1.51687,0,.73465.73465,0,0,0-.16488-.59929Zm.19384,1.02522a1.37922,1.37922,0,0,0-.78741-.24971h-.0039a1.37919,1.37919,0,0,0-.78741.24971,1.18182,1.18182,0,0,0-.11309.508,1.20627,1.20627,0,0,0,.02541.24725A1.68914,1.68914,0,0,1,4.86432,6.339h.0039a1.68917,1.68917,0,0,1,.87509.24725A1.20627,1.20627,0,0,0,5.76872,6.339,1.18182,1.18182,0,0,0,5.65563,5.83105Zm-.78731.8999h-.0001a1.7258,1.7258,0,0,0-.749.16985,1.023,1.023,0,0,0,.74774.47377l.0013-.00011a1.023,1.023,0,0,0,.746-.47517A1.72587,1.72587,0,0,0,4.86832,6.731Zm2.25262-2.4606h-.8685l-.1985.22715-.24727.28272a.97626.97626,0,0,1,.15256.52534c0,.03363-.00173.06682-.005.09947v.00011l.311.557L7.82694,5.15Zm1.172,0H7.424l.61681.76849L8.65393,4.72ZM1.88735,5.15l1.56174.81217.311-.557V5.405c-.00325-.03265-.005-.06584-.005-.09947a.97634.97634,0,0,1,.15255-.52534l-.44576-.50987h-.8685Zm-.827-.43.61313.31884.6168-.76849H1.42137ZM5.348,3.77331l.12605.16791L6.64245,2.33973H6.25708ZM3.47938,2.33973H3.094L4.26238,3.94122l.126-.16791Z"/>
  <path class="cls-4" d="M4.9648,4.55925"/>
  <path class="cls-4" d="M4.9648,4.55925"/>
</svg>
